<svg xmlns="http://www.w3.org/2000/svg" viewBox="20 -4 798 478"><title>МФЦ «Мои документы»</title>
<g fill="#663A2A">
<path d="M646.2,374.1v-69.3h23.2v32.3c0,2.4-0.5,5-0.5,5h1l25.3-37.3h19.7v69.3h-20.7v-32.5c0-2.3,0.5-4.6,0.5-4.6h-1l-25.3,37.1H646.2z"/>
<path d="M597.9,354.4c8.5,0,14.1-6.6,14.1-14.8c0-8.4-5.6-15-14.1-15c-8.2,0-14.1,6.6-14.1,15C583.8,347.8,589.7,354.4,597.9,354.4 M597.9,303c22.1,0,38.6,15.6,38.6,36.6c0,20.8-16.5,36.4-38.6,36.4c-21.9,0-38.4-15.6-38.4-36.4C559.5,318.7,576,303,597.9,303"/>
<path d="M137.2,446.4c14,0,23.5-10.2,23.5-23.6c0-13.6-9.5-24-23.5-24c-13.7,0-23.3,10.3-23.3,24C113.9,436.2,123.4,446.4,137.2,446.4 M137.2,386.1c21.7,0,37.1,15.6,37.1,36.7c0,20.8-15.4,36.3-37.1,36.3c-21.5,0-37-15.5-37-36.3C100.2,401.8,115.7,386.1,137.2,386.1"/>
<path d="M449.7,397.7c12.5,0,19,8.1,20.1,18.7h-40C431.8,405.4,439.4,397.7,449.7,397.7 M482.5,427.2c0.1-1.4,0.2-2.9,0.2-4.3c0-21.1-10.9-36.7-33.7-36.7c-19.5,0-33.6,15.6-33.6,36.7c0,1.5,0.1,2.9,0.2,4.3h0c1.6,18.1,13.2,32,37.4,32c11.7,0,21.6-3.6,28.8-9.4l-5.4-9.9c-5.3,4-13.4,7.7-23,7.7c-15.1,0-22.4-8.2-23.8-20.3h0.1L482.5,427.2L482.5,427.2z"/>
<polygon points="543.1,388 543.1,416.4 506,416.4 506,388 492.2,388 492.2,457.3 506,457.3 506,427.1 543.1,427.1 543.1,457.3 556.9,457.3 556.9,388"/>
<polygon points="629.6,388 566.5,388 566.5,400.3 591.1,400.3 591.1,457.3 604.9,457.3 604.9,400.3 629.6,400.3"/>
<rect x="703.7" y="388" width="13.8" height="69.3"/>
<path d="M214,420.9v-0.6c0,0,1.3-0.4,2.4-1.7c1.2-1.3,26.4-30.5,26.4-30.5h-15.5l-24.3,28.4h-5.5V388h-13.8v69.3h13.8v-30.2h6.3l26.3,30.2h17.2c0,0-29.5-33.2-30.7-34.6C215.4,421.3,214,420.9,214,420.9"/>
<path d="M661.1,446.9c-4.3,0-8.2-0.3-8.2-0.3v-25c0,0,3-0.8,8.3-0.8c11.5,0,16.6,4.5,16.6,12.8C677.9,441.7,673.3,446.9,661.1,446.9 M663.6,409.2c-6.4,0-10.7,0.8-10.7,0.8v-22h-13.8v69.3c0,0,11.3,1.1,23.1,1.1c21.7,0,28.8-13.2,28.8-25.4C691,420.7,684.6,409.2,663.6,409.2"/>
<path d="M57.8,446.4c-13.9,0-21.3-10.2-21-23.6c0.3-13.6,8.2-24,22.1-24c7.7,0,18,7,18,19.7v19.1C72.6,443.1,65.9,446.4,57.8,446.4 M77.5,388l-0.4,8.7h-0.9c-4.4-6.5-13.2-10.6-20.1-10.6c-20.2,0-32.2,15.6-32.7,36.7c-0.5,20.8,11.7,36.3,31.9,36.3c9.3,0,15-2.6,20.7-9.3h0.9v6.2c0,13.4-9.3,18.7-19.8,18.7c-9.7,0-17.2-3.6-21.8-6.4l-4.5,11.4c4.4,2.3,12.6,7.2,26.3,7.2c19.4,0,33.6-11.5,33.6-33.7V388L77.5,388L77.5,388z"/>
<path d="M302,388v50.2c-4.1,5.1-10.3,8.2-18.1,8.2c-12.7,0-18.5-10.2-18.1-23.6V388h-13.4v34.8c-0.5,20.8,7.8,36.3,28,36.3c9.2,0,15.5-2.7,20.7-9.3h0.9v6.2c0,13.4-9.3,18.7-19.8,18.7c-9.7,0-17.2-3.6-21.8-6.4l-4.5,11.4c4.4,2.3,12.6,7.2,26.3,7.2c19.4,0,33.6-11.5,33.6-33.7V388L302,388L302,388z"/>
<path d="M392.8,388c0,0-22.8,32.1-23.5,33c-0.7,0.9-0.9,1.9-0.9,1.9h-0.5c0,0-0.3-0.9-1-1.9c-0.7-1-25.2-33-25.2-33h-13v69.3h13.8v-44.2c0-3.1-0.6-4.8-0.6-4.8h0.6l25.4,34.1h0.6l23.5-34.1h0.7c0,0-0.7,1.8-0.7,4.8v44.2h13.8V388L392.8,388L392.8,388z"/>
<path d="M531.7,304.9c0,0-19.4,25.2-20.2,26.2c-0.9,1.2-1,1.8-1,1.8h-1c0,0-0.2-0.7-1.1-1.8c-1.4-1.7-21.5-26.2-21.5-26.2h-18.3v69.3h22.4V345c0-3.1-0.5-5-0.5-5h1l18,20.7h1l16.7-20.7h1c0,0-0.5,1.9-0.5,5v29.1H550v-69.3H531.7z"/>
<polygon points="717.4,0 620.5,97 717.4,97"/>
</g>
<path fill="#C79B65" d="M675.9,167.3V97h-55.4v70.3c0,24.7,13.2,47.6,34.7,60l62.3,36v-64l-34.6-20C678.5,176.8,675.9,172.3,675.9,167.3"/>
<path fill="#E84B37" d="M717.4,235.6l62.4-36c21.4-12.4,34.7-35.3,34.7-60V0h-97v55.4H759v84.1c0,4.9-2.6,9.5-6.9,12l-34.6,20V235.6z"/>
</svg>
